<svg width="16" height="13" viewBox="0 0 16 13" fill="none" xmlns="http://www.w3.org/2000/svg">
<path fill-rule="evenodd" clip-rule="evenodd" d="M4 13C1.7909 12.9999 -9.99958e-05 11.2091 4.1874e-09 9.00001C4.1874e-09 6.61991 4.1874e-09 4.06021 4.1874e-09 4.06021C4.1874e-09 3.08371 0.8004 2.37071 1.78 2.28021L3.85 2.11021C4.17 1.60021 4.52 1.10091 4.79 0.68091C5.0466 0.24421 5.5238 -0.0174897 6.03 0.000910292H9.91C10.443 0.000510292 10.9382 0.28241 11.21 0.74091C11.4 1.00091 11.77 1.53021 12.13 2.11021L14.22 2.28021C15.1904 2.29611 15.984 2.98171 16 3.95211C16 3.95211 16 6.57761 16 9.00001C16 11.2091 14.2091 12.9999 12 13C9.5567 13 6.4433 13 4 13ZM8 3.01091C5.8057 3.01091 4 4.81661 4 7.01091C4 9.20521 5.8057 11.0109 8 11.0109C10.1943 11.0109 12 9.20521 12 7.01091C12 4.81661 10.1943 3.01091 8 3.01091ZM8 4.36501C9.4543 4.36501 10.635 5.54571 10.635 7.00001C10.635 8.45431 9.4543 9.63501 8 9.63501C6.5457 9.63501 5.365 8.45431 5.365 7.00001C5.365 5.54571 6.5457 4.36501 8 4.36501Z" fill="#EE8208"/>
</svg>
