<svg width="13" height="13" viewBox="0 0 13 13" fill="none" xmlns="http://www.w3.org/2000/svg">
<path fill-rule="evenodd" clip-rule="evenodd" d="M13 3C13 2.2044 12.6839 1.4413 12.1213 0.8787C11.5587 0.3161 10.7956 0 10 0C7.8985 0 5.1015 0 3 0C2.2044 0 1.4413 0.3161 0.8787 0.8787C0.3161 1.4413 0 2.2044 0 3C0 5.1015 0 7.8985 0 10C0 10.7956 0.3161 11.5587 0.8787 12.1213C1.4413 12.6839 2.2044 13 3 13C5.1015 13 7.8985 13 10 13C10.7956 13 11.5587 12.6839 12.1213 12.1213C12.6839 11.5587 13 10.7956 13 10C13 7.8985 13 5.1015 13 3ZM11 5.948L7.945 8.931L7.745 9.226L4.749 7.21L2 9.997V10C2 10.2652 2.1054 10.5196 2.2929 10.7071C2.4804 10.8946 2.7348 11 3 11C4.7316 11 8.2684 11 10 11C10.2652 11 10.5196 10.8946 10.7071 10.7071C10.8946 10.5196 11 10.2652 11 10V5.948ZM10 2H3C2.7347 2 2.4804 2.1054 2.2929 2.2929C2.1054 2.4804 2 2.7348 2 3V7.4992L4.57 5.126L4.644 5.197L7.457 7.069L10.7559 4H11V3C11 2.7348 10.8946 2.4804 10.7071 2.2929C10.5196 2.1054 10.2653 2 10 2Z" fill="#999999"/>
</svg>
