<svg width="15" height="15" viewBox="0 0 15 15" fill="none" xmlns="http://www.w3.org/2000/svg">
<rect x="0.5" y="0.5" width="14" height="14" rx="4" fill="#EE8208"/>
<mask id="path-2-outside-1" maskUnits="userSpaceOnUse" x="2.60376" y="3.48987" width="9" height="8" fill="black">
<rect fill="white" x="2.60376" y="3.48987" width="9" height="8"/>
<path fill-rule="evenodd" clip-rule="evenodd" d="M11.1437 4.62354C10.902 4.42073 10.5416 4.45225 10.3388 4.69396L6.51779 9.2477L4.57905 7.30896C4.35594 7.08584 3.99421 7.08584 3.77109 7.30896C3.54798 7.53207 3.54798 7.89381 3.77109 8.11692L5.99485 10.3407C6.14503 10.4909 6.35801 10.5399 6.54925 10.488C6.75459 10.5392 6.9805 10.4739 7.12568 10.3009L11.2141 5.42843C11.417 5.18672 11.3854 4.82636 11.1437 4.62354Z"/>
</mask>
<path fill-rule="evenodd" clip-rule="evenodd" d="M11.1437 4.62354C10.902 4.42073 10.5416 4.45225 10.3388 4.69396L6.51779 9.2477L4.57905 7.30896C4.35594 7.08584 3.99421 7.08584 3.77109 7.30896C3.54798 7.53207 3.54798 7.89381 3.77109 8.11692L5.99485 10.3407C6.14503 10.4909 6.35801 10.5399 6.54925 10.488C6.75459 10.5392 6.9805 10.4739 7.12568 10.3009L11.2141 5.42843C11.417 5.18672 11.3854 4.82636 11.1437 4.62354Z" fill="white"/>
<path d="M10.3388 4.69396L10.492 4.82252V4.82252L10.3388 4.69396ZM11.1437 4.62354L11.2723 4.47033L11.2723 4.47033L11.1437 4.62354ZM6.51779 9.2477L6.37637 9.38912L6.53071 9.54345L6.671 9.37625L6.51779 9.2477ZM4.57905 7.30896L4.72048 7.16754L4.57905 7.30896ZM3.77109 7.30896L3.91252 7.45038H3.91252L3.77109 7.30896ZM3.77109 8.11692L3.91252 7.9755H3.91251L3.77109 8.11692ZM5.99485 10.3407L5.85343 10.4821L5.99485 10.3407ZM6.54925 10.488L6.59768 10.2939L6.5471 10.2813L6.49678 10.295L6.54925 10.488ZM7.12568 10.3009L6.97248 10.1723L7.12568 10.3009ZM11.2141 5.42843L11.3673 5.55699L11.2141 5.42843ZM10.492 4.82252C10.6239 4.66543 10.8581 4.64494 11.0152 4.77675L11.2723 4.47033C10.946 4.19652 10.4594 4.23908 10.1856 4.5654L10.492 4.82252ZM6.671 9.37625L10.492 4.82252L10.1856 4.5654L6.36458 9.11914L6.671 9.37625ZM4.43763 7.45038L6.37637 9.38912L6.65921 9.10627L4.72048 7.16754L4.43763 7.45038ZM3.91252 7.45038C4.05752 7.30537 4.29263 7.30537 4.43763 7.45038L4.72048 7.16754C4.41926 6.86632 3.93089 6.86632 3.62967 7.16754L3.91252 7.45038ZM3.91251 7.9755C3.76751 7.83049 3.76751 7.59539 3.91252 7.45038L3.62967 7.16754C3.32846 7.46875 3.32846 7.95712 3.62967 8.25834L3.91251 7.9755ZM6.13628 10.1993L3.91252 7.9755L3.62967 8.25834L5.85343 10.4821L6.13628 10.1993ZM6.49678 10.295C6.37191 10.3289 6.2337 10.2967 6.13628 10.1993L5.85343 10.4821C6.05636 10.685 6.34412 10.751 6.60172 10.681L6.49678 10.295ZM6.97248 10.1723C6.87831 10.2845 6.73165 10.3273 6.59768 10.2939L6.50083 10.682C6.77752 10.7511 7.08269 10.6632 7.27889 10.4294L6.97248 10.1723ZM11.0609 5.29987L6.97248 10.1723L7.27889 10.4294L11.3673 5.55699L11.0609 5.29987ZM11.0152 4.77675C11.1723 4.90857 11.1927 5.14278 11.0609 5.29987L11.3673 5.55699C11.6412 5.23066 11.5986 4.74415 11.2723 4.47033L11.0152 4.77675Z" fill="white" mask="url(#path-2-outside-1)"/>
</svg>
