<svg width="11" height="10" viewBox="0 0 11 10" fill="none" xmlns="http://www.w3.org/2000/svg">
<path fill-rule="evenodd" clip-rule="evenodd" d="M10.7072 0.292875C11.0977 0.683375 11.0977 1.31657 10.7072 1.70707L7.41426 4.99997L10.7079 8.29358C11.098 8.68367 11.098 9.31627 10.7079 9.70638L10.7072 9.70708C10.3167 10.0976 9.68346 10.0976 9.29296 9.70708L6.00006 6.41417L2.70716 9.70708C2.31666 10.0976 1.68346 10.0976 1.29296 9.70708L1.29226 9.70638C0.902158 9.31627 0.902158 8.68367 1.29226 8.29358L4.58586 4.99997L1.27456 1.68868C0.894158 1.30827 0.894158 0.691575 1.27456 0.311275L1.27526 0.310575C1.46746 0.118375 1.72816 0.010375 2.00006 0.010375C2.27186 0.010375 2.53266 0.118275 2.72486 0.310575L6.00006 3.58577L9.29296 0.292875C9.68346 -0.097625 10.3167 -0.097625 10.7072 0.292875Z" fill="#333333"/>
</svg>
