<svg width="12" height="14" viewBox="0 0 12 14" fill="none" xmlns="http://www.w3.org/2000/svg">
<path fill-rule="evenodd" clip-rule="evenodd" d="M10.5941 6.50282L6.85707 10.5272C6.65731 10.7233 6.35768 10.9195 5.95816 10.9195C5.66817 10.9195 5.44254 10.7645 5.26423 10.642C5.19688 10.5957 5.13628 10.5541 5.08151 10.5272L1.28381 6.45081L1.18393 6.35272C1.08405 6.15654 0.984168 5.96036 0.984168 5.76419C0.984168 5.27375 1.38369 4.88139 1.88309 4.88139H3.98052L3.9675 1.00627C3.9675 0.515832 4.4669 0.0253908 4.9663 0.0253908L7.02793 0C7.52733 0 8.02673 0.490441 8.02673 0.980883V4.88139L10.0947 4.93341C10.5941 4.93341 10.9936 5.32577 10.9936 5.81621C10.9936 6.01238 10.7939 6.30665 10.5941 6.50282ZM1 12C0.447715 12 0 12.4477 0 13C0 13.5523 0.447715 14 1 14H11C11.5523 14 12 13.5523 12 13C12 12.4477 11.5523 12 11 12H1Z" fill="#0099FF"/>
</svg>
