<svg width="16" height="12" viewBox="0 0 16 12" fill="none" xmlns="http://www.w3.org/2000/svg">
<path fill-rule="evenodd" clip-rule="evenodd" d="M7.97988 12C3.29688 12 0.327881 7.569 0.327881 6.0001C0.327881 4.4222 3.29688 0 7.97988 0C12.6619 0 15.6309 4.437 15.6309 6.0001C15.6309 7.6525 12.6619 12 7.97988 12ZM7.99988 2C10.2079 2 11.9999 3.7923 11.9999 6C11.9999 8.2077 10.2079 10 7.99988 10C5.79188 10 3.99988 8.2077 3.99988 6C3.99988 3.7923 5.79188 2 7.99988 2ZM7.91588 4.0021L7.99988 4C9.10388 4 9.99988 4.8962 9.99988 6C9.99988 7.1038 9.10388 8 7.99988 8C6.89588 8 5.99988 7.1038 5.99988 6L6.00188 5.9108C6.17588 5.984 6.36688 6.0243 6.56688 6.0243C7.37288 6.0243 8.02788 5.3697 8.02788 4.5635C8.02788 4.3648 7.98788 4.1754 7.91588 4.0021Z" fill="#999999"/>
</svg>
