<svg width="16" height="16" viewBox="0 0 16 16" xmlns="http://www.w3.org/2000/svg">
    <g id="16 / ico_home_16">
        <path id="shape 16" fill-rule="evenodd" clip-rule="evenodd"
              d="M1.99582 7.01501H0.991423C0.779723 7.01501 0.590323 6.88401 0.516323 6.68501C0.442423 6.48701 0.499423 6.26401 0.659423 6.12501C2.40912 4.61001 5.89122 1.59401 7.07312 0.570011C7.30452 0.370011 7.64812 0.370011 7.87942 0.571011C9.05982 1.59501 12.5362 4.61001 14.2827 6.12501C14.4426 6.26401 14.4995 6.48701 14.4255 6.68501C14.3515 6.88401 14.1622 7.01501 13.9505 7.01501H12.9869V13.02C12.9869 13.572 12.5392 14.02 11.9869 14.02C9.89672 14.02 5.08602 14.02 2.99582 14.02C2.44352 14.02 1.99582 13.572 1.99582 13.02V7.01501ZM8.98822 9.01501C8.98822 8.46301 8.54052 8.01501 7.98822 8.01501C7.66672 8.01501 7.31072 8.01501 6.98922 8.01501C6.43692 8.01501 5.98922 8.46301 5.98922 9.01501C5.98922 9.33701 5.98922 9.69301 5.98922 10.015C5.98922 10.567 6.43692 11.015 6.98922 11.015C7.31072 11.015 7.66672 11.015 7.98822 11.015C8.54052 11.015 8.98822 10.567 8.98822 10.015C8.98822 9.69301 8.98822 9.33701 8.98822 9.01501Z"
        />
    </g>
</svg>
