<svg width="14" height="16" viewBox="0 0 14 16" fill="none" xmlns="http://www.w3.org/2000/svg">
    <path fill-rule="evenodd" clip-rule="evenodd"
          d="M0 2.888L0.2388 7.7055C0.5914 13.5151 6.9409 15.9694 6.9409 15.9694C6.9409 15.9694 13.5363 13.6153 13.7829 7.8405L13.9862 2.9706C12.5458 1.9494 10.3592 0.8627 7.0119 0C3.5361 0.9031 1.7091 1.8648 0 2.888ZM5.0461 4.8096H4.0011C3.8911 4.8096 3.8011 4.8996 3.8011 5.0096V10.0216C3.8011 10.1316 3.8911 10.2216 4.0011 10.2216H5.0461C5.1572 10.2216 5.2461 10.1316 5.2461 10.0216V7.2336L6.8591 9.1096C6.8971 9.1536 6.9521 9.1796 7.0101 9.1796C7.0691 9.1796 7.1231 9.1546 7.1621 9.1096L8.7711 7.2426V10.0316C8.7711 10.1416 8.8611 10.2316 8.9711 10.2316H10.0161C10.1262 10.2316 10.2161 10.1416 10.2161 10.0316V5.0206C10.2161 4.9106 10.1262 4.8206 10.0161 4.8206H8.9711C8.9121 4.8206 8.8581 4.8456 8.8201 4.8906L7.0101 6.9886L5.1981 4.8796C5.1601 4.8356 5.1052 4.8096 5.0461 4.8096Z"
          fill="#999999"/>
</svg>
