<svg width="16" height="16" viewBox="0 0 16 16" fill="none" xmlns="http://www.w3.org/2000/svg">
<path fill-rule="evenodd" clip-rule="evenodd" d="M15 7.99995C15 4.1366 11.8634 1 8 1C4.1366 1 1 4.1366 1 7.99995C1 11.8634 4.1366 15 8 15C11.8634 15 15 11.8634 15 7.99995ZM7 5.28871C7 5.08192 6.895 4.88355 6.707 4.73734C6.52 4.59114 6.265 4.50895 6 4.50895C5.735 4.50895 5.48 4.59114 5.293 4.73734C5.105 4.88355 5 5.08192 5 5.28871V10.7471C5 10.9539 5.105 11.1522 5.293 11.2985C5.48 11.4447 5.735 11.5268 6 11.5268C6.265 11.5268 6.52 11.4447 6.707 11.2985C6.895 11.1522 7 10.9539 7 10.7471V5.28871ZM11 5.28871C11 5.08192 10.895 4.88355 10.707 4.73734C10.52 4.59114 10.265 4.50895 10 4.50895C9.735 4.50895 9.48 4.59114 9.293 4.73734C9.105 4.88355 9 5.08192 9 5.28871V10.7471C9 10.9539 9.105 11.1522 9.293 11.2985C9.48 11.4447 9.735 11.5268 10 11.5268C10.265 11.5268 10.52 11.4447 10.707 11.2985C10.895 11.1522 11 10.9539 11 10.7471V5.28871Z" fill="#999999"/>
</svg>
