<svg width="16" height="16" viewBox="0 0 16 16" fill="none" xmlns="http://www.w3.org/2000/svg">
<path fill-rule="evenodd" clip-rule="evenodd" d="M15 7.99995C15 4.1366 11.8634 1 8 1C4.1366 1 1 4.1366 1 7.99995C1 11.8634 4.1366 15 8 15C11.8634 15 15 11.8634 15 7.99995ZM6.49391 4.56468C6.31375 4.65454 6.2002 4.83866 6.2002 5.04023V11.0024C6.2002 11.204 6.31375 11.3881 6.49391 11.478C6.67408 11.5679 6.88907 11.5479 7.04955 11.4265L7.36587 11.1872C8.48727 10.3387 10.1349 9.09201 10.989 8.44536C11.1222 8.34495 11.2002 8.188 11.2002 8.02134C11.2002 7.85468 11.1222 7.69773 10.989 7.59732C10.1318 6.94831 8.47524 5.6949 7.35361 4.84621L7.04955 4.61614C6.88907 4.49479 6.67408 4.47483 6.49391 4.56468Z" fill="#999999"/>
</svg>
