<svg width="16" height="16" viewBox="0 0 16 16" fill="none" xmlns="http://www.w3.org/2000/svg">
<path fill-rule="evenodd" clip-rule="evenodd" d="M8.7071 2.2929C8.8946 2.4804 9 2.7348 9 3V7H13C13.2652 7 13.5196 7.1054 13.7071 7.2929C13.8946 7.4804 14 7.7348 14 8C14 8.2652 13.8946 8.5196 13.7071 8.7071C13.5196 8.8946 13.2652 9 13 9H9V13C9 13.2652 8.8946 13.5196 8.7071 13.7071C8.5196 13.8946 8.2652 14 8 14C7.7348 14 7.4804 13.8946 7.2929 13.7071C7.1054 13.5196 7 13.2652 7 13V9H3C2.7348 9 2.4804 8.8946 2.2929 8.7071C2.1054 8.5196 2 8.2652 2 8C2 7.7348 2.1054 7.4804 2.2929 7.2929C2.4804 7.1054 2.7348 7 3 7H7V3C7 2.7348 7.1054 2.4804 7.2929 2.2929C7.4804 2.1054 7.7348 2 8 2C8.2652 2 8.5196 2.1054 8.7071 2.2929Z" fill="#EE8208"/>
</svg>
