<svg width="12" height="14" viewBox="0 0 12 14" fill="none" xmlns="http://www.w3.org/2000/svg">
    <path fill-rule="evenodd" clip-rule="evenodd"
          d="M5.00001 3.414V13C5.00001 13.552 5.44801 14 6.00001 14C6.55201 14 7.00001 13.552 7.00001 13V3.414L9.61101 6.025C10.001 6.416 10.635 6.416 11.025 6.025C11.416 5.635 11.416 5.001 11.025 4.611L6.71901 0.304C6.71501 0.301 6.71101 0.297 6.70701 0.293C6.51201 0.098 6.25601 0 6.00001 0C5.74401 0 5.48801 0.098 5.29301 0.293C5.28901 0.297 5.28501 0.301 5.28101 0.304L0.975013 4.611C0.584013 5.001 0.584013 5.635 0.975013 6.025C1.36501 6.416 1.99901 6.416 2.38901 6.025L5.00001 3.414Z"
          fill="#999999"/>
</svg>
