<svg width="15" height="14" viewBox="0 0 15 14" fill="none" xmlns="http://www.w3.org/2000/svg">
<path fill-rule="evenodd" clip-rule="evenodd" d="M13.101 6.8848C13.2455 6.74022 13.3824 6.60336 13.506 6.47972C13.842 6.14352 14.387 6.14352 14.724 6.47972V6.48032C15.06 6.81652 15.06 7.36172 14.724 7.69792C14.128 8.29402 13.225 9.19712 12.629 9.79312C12.437 9.98533 12.1763 10.0677 11.9255 10.0402C11.7191 10.0304 11.5156 9.94668 11.358 9.78902C10.76 9.19172 9.854 8.28592 9.257 7.68862C8.921 7.35232 8.921 6.80722 9.257 6.47092C9.257 6.47072 9.258 6.47052 9.258 6.47042C9.594 6.13412 10.139 6.13412 10.475 6.47042C10.6546 6.64979 10.8618 6.85697 11.0802 7.07527C11.2333 5.71092 10.7707 4.33429 9.77429 3.33602C7.99595 1.55465 5.11304 1.55465 3.33469 3.33604C1.55543 5.11825 1.55543 8.00871 3.33494 9.79125C4.10842 10.5666 5.1122 11.0243 6.18056 11.1118C6.731 11.1568 7.14071 11.6395 7.09566 12.19C7.05062 12.7404 6.56788 13.1501 6.01744 13.1051C4.48013 12.9793 3.03112 12.3185 1.91929 11.204C-0.639437 8.64094 -0.639437 4.48599 1.91929 1.92302C4.47895 -0.641012 8.63004 -0.641012 11.1897 1.92305C12.5215 3.25724 13.1902 5.06313 13.101 6.8848Z" fill="#999999"/>
</svg>
