<svg width="16" height="13" viewBox="0 0 16 13" fill="none" xmlns="http://www.w3.org/2000/svg">
<path fill-rule="evenodd" clip-rule="evenodd" d="M6.75071 1.63718C7.00201 1.22338 7.45021 0.969784 7.93431 0.967484C8.41841 0.965184 8.86891 1.21458 9.12411 1.62598C10.648 4.08348 13.2736 8.31728 14.8519 10.8624C15.118 11.2911 15.1313 11.8302 14.8868 12.2715C14.6422 12.7129 14.178 12.9873 13.6734 12.989C9.82871 12.9967 5.13791 12.9908 2.33131 12.9857C1.82881 12.9848 1.36571 12.7132 1.11971 12.2751C0.873708 11.8369 0.882808 11.3002 1.14361 10.8707C2.68631 8.33028 5.25581 4.09888 6.75071 1.63718ZM8.01071 9.92198C8.60801 9.92198 9.09221 10.4055 9.09221 11.0017C9.09221 11.5982 8.60801 12.0815 8.01071 12.0815C7.41331 12.0815 6.92901 11.5982 6.92901 11.0017C6.92901 10.4055 7.41331 9.92198 8.01071 9.92198ZM8.29801 8.99838C8.38711 8.99738 8.46271 8.93478 8.47951 8.84848C8.47951 8.84848 8.93141 5.83818 9.02491 5.05048C9.09311 4.47678 8.59691 4.03428 7.99851 4.03428C7.40011 4.03428 6.90331 4.49338 6.97181 5.05108C7.06751 5.83078 7.50891 8.84578 7.50891 8.84578C7.52571 8.93278 7.60971 8.99838 7.69771 8.99838H8.29801Z" fill="#999999"/>
</svg>
