<svg width="11" height="14" viewBox="0 0 11 14" fill="none" xmlns="http://www.w3.org/2000/svg">
<path fill-rule="evenodd" clip-rule="evenodd" d="M3.28089 13.616C1.60969 12.873 0.338386 11.304 0.044486 9.341L0.022786 9.175C-0.042514 8.559 -0.106814 6.335 1.95789 4.341C4.36659 2.014 4.22119 0.042 4.21779 0C4.76369 0.328 7.91479 2.408 7.00049 6.791C7.00049 6.791 9.09989 5.884 8.84979 3.506C9.85629 4.645 10.6941 6.042 10.937 7.665C11.35 10.424 9.69219 13.02 7.14269 13.83C7.14269 13.83 7.37349 12.08 5.91309 11.446C5.96449 11.662 6.04199 12.021 6.00999 12.254C5.86999 13.273 4.94059 13.985 3.93569 13.843C3.69749 13.809 3.47619 13.731 3.28089 13.616Z" fill="#999999"/>
</svg>
