<svg width="12" height="13" viewBox="0 0 12 13" fill="none" xmlns="http://www.w3.org/2000/svg">
<path fill-rule="evenodd" clip-rule="evenodd" d="M10.626 11.11C10.561 12.166 9.68504 12.988 8.62704 12.987C7.08404 12.986 4.91004 12.984 3.36604 12.982C2.30704 12.981 1.43304 12.156 1.37104 11.099C1.22104 8.543 0.972043 4.285 0.972043 4.285H11.045C11.045 4.285 10.783 8.551 10.626 11.11ZM4.54104 1.008C4.54104 1.005 4.54104 1.003 4.54104 1C4.54104 0.448 5.19504 0 6.00004 0C6.80504 0 7.45904 0.448 7.45904 1C7.45904 1.003 7.45904 1.005 7.45904 1.008H10.869C11.131 1.008 11.382 1.112 11.567 1.297C11.752 1.482 11.856 1.733 11.856 1.995C11.856 2.257 11.752 2.508 11.567 2.693C11.382 2.878 11.131 2.982 10.869 2.982C8.66004 2.982 3.34004 2.982 1.13104 2.982C0.869043 2.982 0.618043 2.878 0.433043 2.693C0.248043 2.508 0.144043 2.257 0.144043 1.995C0.144043 1.733 0.248043 1.482 0.433043 1.297C0.618043 1.112 0.869043 1.008 1.13104 1.008H4.54104Z" fill="#999999"/>
</svg>
