<svg width="14" height="14" viewBox="0 0 14 14" fill="none" xmlns="http://www.w3.org/2000/svg">
    <path fill-rule="evenodd" clip-rule="evenodd"
          d="M13.6913 6.66792C13.8787 6.48042 13.9841 6.22622 13.9842 5.96122C13.9845 4.96852 13.9855 2.43002 13.986 1.00962C13.9861 0.744216 13.8808 0.489716 13.6931 0.302116C13.5055 0.114516 13.251 0.00911638 12.9856 0.00921638C11.5652 0.00971638 9.02669 0.0107164 8.03409 0.0110164C7.76899 0.0111164 7.51479 0.116516 7.32729 0.303916C6.32359 1.30772 2.98799 4.64332 1.25849 6.37282C0.977192 6.65412 0.819092 7.03562 0.819092 7.43352C0.819092 7.83132 0.977192 8.21282 1.25849 8.49412C2.43559 9.67122 4.32399 11.5596 5.50109 12.7367C5.78239 13.018 6.16389 13.1761 6.56179 13.1761C6.95959 13.1761 7.34109 13.0181 7.62239 12.7367C9.35189 11.0072 12.6875 7.67172 13.6913 6.66792ZM11.7743 2.21492C12.2107 2.65132 12.2107 3.36002 11.7743 3.79642C11.3379 4.23282 10.6292 4.23282 10.1928 3.79642C9.75639 3.36002 9.75639 2.65132 10.1928 2.21492C10.6292 1.77852 11.3379 1.77852 11.7743 2.21492Z"
          fill="#999999"/>
</svg>
